<svg xmlns="http://www.w3.org/2000/svg" width="1400" height="920" viewBox="0 0 1400 920" fill="none">
  <rect width="1400" height="920" fill="#F6EFE6"/>
  <rect y="84" width="1400" height="112" fill="#E8DDCE"/>
  <rect x="96" y="222" width="1210" height="574" rx="44" fill="#FFFDF9" stroke="#D8CCBF" stroke-width="8"/>
  <rect x="150" y="288" width="284" height="450" rx="32" fill="#F0E4D7"/>
  <rect x="470" y="288" width="284" height="450" rx="32" fill="#FAF3EC"/>
  <rect x="790" y="288" width="284" height="450" rx="32" fill="#F0E4D7"/>
  <rect x="1110" y="288" width="136" height="450" rx="32" fill="#FAF3EC"/>
  <circle cx="220" cy="180" r="58" fill="#8A9A7B"/>
  <circle cx="1186" cy="166" r="44" fill="#CFA888"/>
  <path d="M214 704c42-140 88-210 144-210 58 0 106 66 152 210H214Z" fill="#A38C76" opacity=".86"/>
  <rect x="534" y="352" width="152" height="180" rx="22" fill="#D6C7B5"/>
  <rect x="844" y="334" width="186" height="18" rx="9" fill="#70523D" opacity=".24"/>
  <rect x="844" y="378" width="186" height="18" rx="9" fill="#70523D" opacity=".12"/>
  <rect x="1128" y="346" width="98" height="300" rx="20" fill="#D6C7B5"/>
</svg>
