<svg xmlns="http://www.w3.org/2000/svg" width="1400" height="920" viewBox="0 0 1400 920" fill="none">
  <rect width="1400" height="920" fill="#F7EFE4"/>
  <rect x="86" y="98" width="1228" height="720" rx="42" fill="#FFFDF9" stroke="#D8CBBE" stroke-width="8"/>
  <rect x="162" y="176" width="1080" height="90" rx="24" fill="#ECE1D3"/>
  <rect x="184" y="286" width="270" height="390" rx="28" fill="#EFE4D5"/>
  <rect x="474" y="286" width="270" height="390" rx="28" fill="#F5EDE2"/>
  <rect x="764" y="286" width="270" height="390" rx="28" fill="#EFE4D5"/>
  <rect x="1054" y="286" width="150" height="390" rx="28" fill="#F5EDE2"/>
  <rect x="216" y="336" width="172" height="18" rx="9" fill="#70523D" opacity=".22"/>
  <rect x="216" y="378" width="132" height="132" rx="18" fill="#8A9A7B" opacity=".72"/>
  <rect x="216" y="534" width="174" height="18" rx="9" fill="#70523D" opacity=".16"/>
  <rect x="516" y="340" width="180" height="18" rx="9" fill="#70523D" opacity=".22"/>
  <circle cx="604" cy="452" r="78" fill="#CFA888"/>
  <rect x="520" y="562" width="176" height="18" rx="9" fill="#70523D" opacity=".16"/>
  <rect x="804" y="338" width="184" height="18" rx="9" fill="#70523D" opacity=".22"/>
  <path d="M822 560c26-112 74-176 146-176 58 0 108 40 146 176H822Z" fill="#8A9A7B" opacity=".84"/>
  <rect x="1090" y="340" width="80" height="18" rx="9" fill="#70523D" opacity=".22"/>
  <rect x="1088" y="394" width="84" height="212" rx="16" fill="#D8C2AB"/>
  <circle cx="232" cy="184" r="20" fill="#A38C76"/>
  <circle cx="1170" cy="182" r="24" fill="#8A9A7B"/>
</svg>
